HIERARCHY
ROOT Pelvis
{
	OFFSET 0.000000 0.000000 0.000000
	CHANNELS 6 Xposition Yposition Zposition Xrotation Yrotation Zrotation
	JOINT LeftUpLeg_virtual
	{
		OFFSET 0.000000 0.000000 0.000000
		CHANNELS 3 Xrotation Yrotation Zrotation
		JOINT LeftUpLeg
		{
			OFFSET 18.735201 -5.666702 -4.541200
			CHANNELS 3 Xrotation Yrotation Zrotation
			JOINT LeftLeg
			{
				OFFSET -0.021200 -31.938179 0.493100
				CHANNELS 3 Xrotation Yrotation Zrotation
				JOINT LeftFoot
				{
					OFFSET 0.021200 -31.938179 -4.336299
					CHANNELS 3 Xrotation Yrotation Zrotation
					JOINT LeftToeBase
					{
						OFFSET 0.943001 -26.722000 15.023500
						CHANNELS 3 Xrotation Yrotation Zrotation
						End Site
						{
							OFFSET 0 0 0
						}
					}
				}
			}
		}
	}
	JOINT RightUpLeg_virtual
	{
		OFFSET 0.000000 0.000000 0.000000
		CHANNELS 3 Xrotation Yrotation Zrotation
		JOINT RightUpLeg
		{
			OFFSET -18.735201 -5.666702 -4.541200
			CHANNELS 3 Xrotation Yrotation Zrotation
			JOINT RightLeg
			{
				OFFSET 0.018946 -31.938133 0.493100
				CHANNELS 3 Xrotation Yrotation Zrotation
				JOINT RightFoot
				{
					OFFSET -0.018946 -31.938126 -4.336299
					CHANNELS 3 Xrotation Yrotation Zrotation
					JOINT RightToeBase
					{
						OFFSET -0.943001 -26.722004 15.023500
						CHANNELS 3 Xrotation Yrotation Zrotation
						End Site
						{
							OFFSET 0 0 0
						}
					}
				}
			}
		}
	}
	JOINT Hips_virtual
	{
		OFFSET 0.000000 0.000000 0.000000
		CHANNELS 3 Xrotation Yrotation Zrotation
		JOINT Hips
		{
			OFFSET -0.000000 -0.000000 -0.000000
			CHANNELS 3 Xrotation Yrotation Zrotation
			JOINT Spine
			{
				OFFSET 0.000000 10.199997 -0.299500
				CHANNELS 3 Xrotation Yrotation Zrotation
				JOINT Spine1
				{
					OFFSET 0.000000 11.900002 -1.516600
					CHANNELS 3 Xrotation Yrotation Zrotation
					JOINT Spine2
					{
						OFFSET 0.000000 13.600006 -2.842500
						CHANNELS 3 Xrotation Yrotation Zrotation
						JOINT Neck_virtual
						{
							OFFSET 0.000000 0.000000 0.000000
							CHANNELS 3 Xrotation Yrotation Zrotation
							JOINT Neck
							{
								OFFSET 0.000000 9.624100 -2.890100
								CHANNELS 3 Xrotation Yrotation Zrotation
								JOINT Head
								{
									OFFSET 0.000000 14.068802 -1.351900
									CHANNELS 3 Xrotation Yrotation Zrotation
									End Site
									{
										OFFSET 0 0 0
									}
								}
							}
						}
						JOINT LeftShoulder_virtual
						{
							OFFSET 0.000000 0.000000 0.000000
							CHANNELS 3 Xrotation Yrotation Zrotation
							JOINT LeftShoulder
							{
								OFFSET 15.263000 10.923401 -0.547700
								CHANNELS 3 Xrotation Yrotation Zrotation
								JOINT LeftArm
								{
									OFFSET 25.438599 -2.830597 -13.032500
									CHANNELS 3 Xrotation Yrotation Zrotation
									JOINT LeftForeArm
									{
										OFFSET 29.960503 0.000000 0.000000
										CHANNELS 3 Xrotation Yrotation Zrotation
										JOINT LeftHand
										{
											OFFSET 27.849251 0.000000 0.000000
											CHANNELS 3 Xrotation Yrotation Zrotation
											End Site
											{
												OFFSET 0 0 0
											}
										}
									}
								}
							}
						}
						JOINT RightShoulder_virtual
						{
							OFFSET 0.000000 0.000000 0.000000
							CHANNELS 3 Xrotation Yrotation Zrotation
							JOINT RightShoulder
							{
								OFFSET -15.263000 10.923401 -0.547700
								CHANNELS 3 Xrotation Yrotation Zrotation
								JOINT RightArm
								{
									OFFSET -25.438599 -2.830597 -13.032500
									CHANNELS 3 Xrotation Yrotation Zrotation
									JOINT RightForeArm
									{
										OFFSET -29.960503 0.000000 0.000000
										CHANNELS 3 Xrotation Yrotation Zrotation
										JOINT RightHand
										{
											OFFSET -27.849251 0.000000 0.000000
											CHANNELS 3 Xrotation Yrotation Zrotation
											End Site
											{
												OFFSET 0 0 0
											}
										}
									}
								}
							}
						}
					}
				}
			}
		}
	}
}
MOTION
Frames: 11
Frame Time: 0.03333333
10.072481 184.662872 75.264465 0.000000 0.000000 0.000000 8.530180 8.830622 -0.860577 -33.197339 13.484306 18.728302 63.268650 -4.078845 -2.471243 9.777124 -4.081412 -12.891066 0.000000 0.000000 0.000000 -7.469815 22.633524 -3.336472 -41.591027 5.059125 -17.838967 57.505022 12.256354 -0.339107 -2.087414 9.238891 21.446254 0.000000 0.000000 0.000000 0.782924 6.304781 0.501093 -10.606135 7.968209 0.871748 18.858709 -1.932965 -2.265489 9.343531 -1.199060 -0.804622 0.000000 0.000000 0.000000 9.157013 -1.142481 -2.848120 2.652193 -0.458554 -1.138250 0.000000 0.000000 0.000000 8.765227 0.873387 2.831102 2.344482 1.949810 1.391648 -57.051167 -42.267465 -75.098340 -175.899419 -62.336268 -174.463413 0.000000 0.000000 0.000000 12.169748 -0.340750 -0.086929 6.045560 6.005770 -0.442841 -15.163133 24.005379 46.157828 -5.906144 76.058992 8.702696 0.000000 0.000000 0.000000 
10.309641 182.133087 78.180344 0.000000 0.000000 0.000000 8.490299 8.906540 -0.824878 -33.200682 13.479296 18.754707 63.106720 -4.002363 -2.510778 9.657420 -3.973016 -12.876542 0.000000 0.000000 0.000000 -7.430486 22.129839 -3.006389 -41.462045 4.790694 -17.531062 58.154006 12.407852 -0.742106 -1.737254 9.630323 21.071023 0.000000 0.000000 0.000000 0.737355 6.233341 0.575323 -11.499372 7.430851 1.221905 18.945367 -1.675862 -2.292676 9.341116 -1.062502 -0.791672 0.000000 0.000000 0.000000 9.414938 -1.035569 -2.772600 2.758106 -0.440412 -1.104317 0.000000 0.000000 0.000000 8.841291 0.958097 2.777460 2.337206 2.032154 1.024606 -56.616316 -42.384602 -74.963307 -175.910771 -62.715869 -174.551577 0.000000 0.000000 0.000000 12.295800 -0.188307 -0.116230 6.078704 6.387823 -0.503818 -15.763628 24.116904 46.445549 -6.261759 76.242683 8.932175 0.000000 0.000000 0.000000 
10.532316 179.431686 81.091637 0.000000 0.000000 0.000000 8.367820 8.792018 -0.834485 -33.266570 13.427511 18.687671 62.757971 -4.036327 -2.570081 9.281826 -3.947986 -12.975956 0.000000 0.000000 0.000000 -7.389322 21.472114 -2.645776 -41.303861 4.470396 -17.184969 58.429775 12.368272 -1.094541 -1.545086 9.810609 20.558152 0.000000 0.000000 0.000000 0.708894 6.163807 0.642246 -12.332778 6.875267 1.527667 18.942951 -1.437297 -2.327952 9.287832 -0.934214 -0.784906 0.000000 0.000000 0.000000 9.632378 -0.946498 -2.687380 2.846919 -0.427144 -1.069143 0.000000 0.000000 0.000000 8.856707 1.037655 2.720487 2.298066 2.121233 0.635314 -56.263530 -42.418924 -74.773913 -175.861908 -63.197452 -174.557697 0.000000 0.000000 0.000000 12.348851 -0.051902 -0.150273 6.074961 6.709249 -0.592901 -16.475036 24.175279 47.090176 -7.129514 76.660786 9.736091 0.000000 0.000000 0.000000 
10.729939 176.567993 83.843842 0.000000 0.000000 0.000000 8.219077 8.600081 -0.871985 -33.308251 13.360599 18.554883 62.198312 -4.133780 -2.659090 8.692008 -3.957856 -13.165691 0.000000 0.000000 0.000000 -7.271812 20.665951 -2.298318 -41.038119 4.098009 -16.839075 58.352628 12.140908 -1.386228 -1.508962 9.772840 19.923911 0.000000 0.000000 0.000000 0.695628 6.112972 0.700501 -13.064004 6.332581 1.813237 18.897571 -1.194417 -2.358328 9.211349 -0.804060 -0.777523 0.000000 0.000000 0.000000 9.816407 -0.870837 -2.586591 2.919969 -0.417181 -1.028888 0.000000 0.000000 0.000000 8.803376 1.119087 2.665301 2.216568 2.231598 0.255774 -56.045408 -42.395080 -74.521462 -175.767064 -63.759324 -174.475461 0.000000 0.000000 0.000000 12.336940 0.074681 -0.193419 6.041879 6.975966 -0.718746 -17.276144 24.125386 47.977636 -8.515285 77.234679 11.086279 0.000000 0.000000 0.000000 
10.906433 173.548706 86.574997 0.000000 0.000000 0.000000 7.987399 8.332546 -0.893274 -33.406797 13.251096 18.407805 61.403305 -4.216753 -2.761097 7.901994 -3.929943 -13.354065 0.000000 0.000000 0.000000 -7.024646 19.818610 -2.007420 -40.614634 3.706998 -16.533941 58.055768 11.798402 -1.626496 -1.563389 9.595343 19.236046 0.000000 0.000000 0.000000 0.690602 6.099643 0.738545 -13.711441 5.852164 2.023127 18.828258 -0.944696 -2.378924 9.125355 -0.669782 -0.765506 0.000000 0.000000 0.000000 9.988229 -0.794634 -2.472227 2.987204 -0.402794 -0.984035 0.000000 0.000000 0.000000 8.707366 1.212888 2.612961 2.107074 2.394286 -0.093579 -55.795672 -42.269790 -74.078797 -175.629667 -64.486350 -174.314719 0.000000 0.000000 0.000000 12.278535 0.201749 -0.241802 5.985093 7.232650 -0.856243 -18.130297 23.979478 49.063523 -10.440358 77.894483 13.006168 0.000000 0.000000 0.000000 
11.098328 170.369446 89.321915 0.000000 0.000000 0.000000 7.725996 8.004609 -0.872270 -33.475355 13.105126 18.268847 60.408071 -4.211163 -2.859104 6.980574 -3.802353 -13.456321 0.000000 0.000000 0.000000 -6.633258 18.952306 -1.836209 -40.026695 3.323309 -16.333083 57.596369 11.424880 -1.815640 -1.720781 9.346770 18.577262 0.000000 0.000000 0.000000 0.691828 6.139117 0.753240 -14.325325 5.483444 2.162403 18.727592 -0.690270 -2.393393 9.027790 -0.530193 -0.750775 0.000000 0.000000 0.000000 10.111036 -0.713269 -2.360084 3.030520 -0.381807 -0.943417 0.000000 0.000000 0.000000 8.590876 1.314967 2.568404 1.981278 2.622393 -0.391172 -55.532553 -42.029347 -73.495281 -175.440826 -65.305488 -174.074215 0.000000 0.000000 0.000000 12.161693 0.327106 -0.298789 5.880194 7.521088 -1.030177 -19.094234 23.809333 50.293579 -13.055397 78.689182 15.620836 0.000000 0.000000 0.000000 
11.270231 166.979736 91.957893 0.000000 0.000000 0.000000 7.452856 7.613557 -0.794538 -33.507327 12.920881 18.160939 59.321491 -4.072229 -2.968657 6.044279 -3.532383 -13.466295 0.000000 0.000000 0.000000 -6.151510 17.972509 -1.734734 -39.327048 2.915025 -16.195543 57.073450 10.998482 -1.955656 -1.901891 9.019135 17.940409 0.000000 0.000000 0.000000 0.705595 6.192265 0.748926 -14.867228 5.130176 2.230596 18.605241 -0.421106 -2.445645 8.927698 -0.379511 -0.759225 0.000000 0.000000 0.000000 10.231471 -0.598559 -2.290972 3.071172 -0.339216 -0.927500 0.000000 0.000000 0.000000 8.451151 1.434284 2.510384 1.840540 2.916616 -0.705509 -55.185852 -41.696857 -72.924263 -175.169408 -66.129277 -173.785407 0.000000 0.000000 0.000000 11.988766 0.468844 -0.375841 5.724191 7.894815 -1.276651 -20.241896 23.654962 51.561375 -16.545109 79.603177 19.069318 0.000000 0.000000 0.000000 
11.482183 163.355530 94.457726 0.000000 0.000000 0.000000 7.192766 7.224619 -0.699441 -33.479272 12.731327 18.053833 58.106318 -3.798206 -3.103657 5.060982 -3.111089 -13.406879 0.000000 0.000000 0.000000 -5.654445 17.145559 -1.569558 -38.592976 2.525136 -15.991488 56.603000 10.556776 -2.048197 -2.054349 8.649842 17.372101 0.000000 0.000000 0.000000 0.717289 6.265232 0.711930 -15.396297 4.755719 2.134647 18.452297 -0.119443 -2.537573 8.817188 -0.210798 -0.788652 0.000000 0.000000 0.000000 10.337690 -0.441812 -2.267391 3.101596 -0.272611 -0.935718 0.000000 0.000000 0.000000 8.303906 1.588947 2.436831 1.693231 3.292092 -1.028751 -54.773500 -41.242646 -72.421787 -174.757767 -66.945922 -173.402411 0.000000 0.000000 0.000000 11.826350 0.625610 -0.479094 5.586105 8.302287 -1.627869 -21.341790 23.615625 52.729228 -20.739547 80.593493 23.208237 0.000000 0.000000 0.000000 
11.620930 158.717194 97.312477 0.000000 0.000000 0.000000 7.047454 6.812781 -0.637875 -33.296441 12.572556 17.905768 56.915598 -3.438154 -3.250554 4.150837 -2.606088 -13.304905 0.000000 0.000000 0.000000 -5.170649 16.362188 -1.420326 -37.869393 2.157733 -15.800562 56.174242 10.097770 -2.093402 -2.184937 8.236324 16.869782 0.000000 0.000000 0.000000 0.707997 6.307705 0.639730 -16.041978 4.281091 1.781194 18.261417 0.201629 -2.652939 8.688461 -0.031118 -0.829424 0.000000 0.000000 0.000000 10.432226 -0.259341 -2.288806 3.123397 -0.192145 -0.968587 0.000000 0.000000 0.000000 8.131640 1.759031 2.358949 1.515047 3.663418 -1.329540 -54.393086 -40.755647 -72.120241 -174.218277 -67.657026 -172.953695 0.000000 0.000000 0.000000 11.668871 0.794498 -0.586578 5.439891 8.746256 -2.008601 -22.415040 23.756446 53.892255 -26.086251 81.655998 28.520426 0.000000 0.000000 0.000000 
11.798084 153.748291 100.148277 0.000000 0.000000 0.000000 6.961348 6.521566 -0.652016 -33.074819 12.480130 17.707624 55.839600 -3.049548 -3.459338 3.357317 -2.053080 -13.284937 0.000000 0.000000 0.000000 -4.649678 15.492119 -1.257940 -37.097155 1.755312 -15.600550 55.806785 9.672775 -2.061255 -2.288314 7.812281 16.526244 0.000000 0.000000 0.000000 0.687070 6.320975 0.553808 -16.788398 3.623513 1.326559 18.064962 0.523827 -2.776515 8.567233 0.150252 -0.874003 0.000000 0.000000 0.000000 10.471903 -0.060576 -2.350645 3.115114 -0.105937 -1.023220 0.000000 0.000000 0.000000 7.954005 1.935982 2.273172 1.315852 3.983464 -1.635355 -54.026854 -40.298072 -72.115118 -173.539794 -68.238248 -172.467577 0.000000 0.000000 0.000000 11.566193 0.975934 -0.680296 5.323358 9.224638 -2.363550 -23.351266 24.224560 55.045837 -33.011281 82.787869 35.475466 0.000000 0.000000 0.000000 
11.829197 148.418549 102.935402 0.000000 0.000000 0.000000 6.850001 6.340864 -0.737880 -32.968114 12.433056 17.481536 55.011085 -2.753196 -3.718792 2.747025 -1.584248 -13.423378 0.000000 0.000000 0.000000 -4.269699 14.507962 -1.142011 -36.520765 1.367901 -15.465488 55.388705 9.260890 -1.941949 -2.439788 7.343714 16.326263 0.000000 0.000000 0.000000 0.645180 6.359238 0.459307 -17.694437 2.907487 0.784909 17.858441 0.837190 -2.874381 8.431804 0.327657 -0.902199 0.000000 0.000000 0.000000 10.456606 0.143164 -2.413597 3.077455 -0.024472 -1.077448 0.000000 0.000000 0.000000 7.802835 2.125498 2.216909 1.115408 4.235400 -1.799410 -53.571933 -40.037859 -72.126620 -172.923328 -68.799963 -172.083816 0.000000 0.000000 0.000000 11.514873 1.146270 -0.746545 5.209004 9.636103 -2.651710 -24.003453 24.954825 55.997381 -40.499415 83.754177 43.047913 0.000000 0.000000 0.000000 
